<svg width="1100" height="776" viewBox="0 0 1100 776" fill="none" xmlns="http://www.w3.org/2000/svg">
<g filter="url(#filter0_d_28_93)">
<path d="M30.9999 78.3201C30.9999 52.0086 52.3295 30.679 78.641 30.679H990.491C1016.8 30.679 1038.13 52.0087 1038.13 78.3201V656.683C1038.13 682.994 1016.8 704.324 990.491 704.324H78.6409C52.3294 704.324 30.9999 682.994 30.9999 656.683V78.3201Z" fill="url(#paint0_linear_28_93)"/>
<path d="M30.9999 78.3201C30.9999 52.0086 52.3295 30.679 78.641 30.679H990.491C1016.8 30.679 1038.13 52.0087 1038.13 78.3201V656.683C1038.13 682.994 1016.8 704.324 990.491 704.324H78.6409C52.3294 704.324 30.9999 682.994 30.9999 656.683V78.3201Z" stroke="url(#paint1_linear_28_93)" stroke-width="60.0278" stroke-miterlimit="16" stroke-linejoin="round"/>
</g>
<rect x="37" y="45" width="996" height="659" fill="#242424" fill-opacity="0.88"/>
<path d="M30.9999 78.3201C30.9999 52.0086 52.3295 30.679 78.641 30.679H990.491C1016.8 30.679 1038.13 52.0087 1038.13 78.3201V656.683C1038.13 682.994 1016.8 704.324 990.491 704.324H78.6409C52.3294 704.324 30.9999 682.994 30.9999 656.683V78.3201Z" stroke="url(#paint2_linear_28_93)" stroke-width="60.0278" stroke-miterlimit="16" stroke-linejoin="round"/>
<path d="M30.9999 78.3201C30.9999 52.0086 52.3295 30.679 78.641 30.679H990.491C1016.8 30.679 1038.13 52.0087 1038.13 78.3201V656.683C1038.13 682.994 1016.8 704.324 990.491 704.324H78.6409C52.3294 704.324 30.9999 682.994 30.9999 656.683V78.3201Z" stroke="black" stroke-opacity="0.2" stroke-width="60.0278" stroke-miterlimit="16" stroke-linejoin="round"/>
<defs>
<filter id="filter0_d_28_93" x="0.986023" y="0.665131" width="1098.6" height="774.644" filterUnits="userSpaceOnUse" color-interpolation-filters="sRGB">
<feFlood flood-opacity="0" result="BackgroundImageFix"/>
<feColorMatrix in="SourceAlpha" type="matrix" values="0 0 0 0 0 0 0 0 0 0 0 0 0 0 0 0 0 0 127 0" result="hardAlpha"/>
<feOffset dx="27.6318" dy="37.16"/>
<feGaussianBlur stdDeviation="1.90564"/>
<feComposite in2="hardAlpha" operator="out"/>
<feColorMatrix type="matrix" values="0 0 0 0 0 0 0 0 0 0 0 0 0 0 0 0 0 0 0.54 0"/>
<feBlend mode="normal" in2="BackgroundImageFix" result="effect1_dropShadow_28_93"/>
<feBlend mode="normal" in="SourceGraphic" in2="effect1_dropShadow_28_93" result="shape"/>
</filter>
<linearGradient id="paint0_linear_28_93" x1="632.23" y1="17.8159" x2="632.23" y2="691.461" gradientUnits="userSpaceOnUse">
<stop stop-color="#FFE3EF"/>
<stop offset="1" stop-color="#EF4CFD"/>
</linearGradient>
<linearGradient id="paint1_linear_28_93" x1="632.23" y1="25.7993" x2="632.23" y2="691.461" gradientUnits="userSpaceOnUse">
<stop stop-color="#752BFE"/>
<stop offset="1" stop-color="#EE4EFC"/>
</linearGradient>
<linearGradient id="paint2_linear_28_93" x1="632.23" y1="25.7993" x2="632.23" y2="691.461" gradientUnits="userSpaceOnUse">
<stop stop-color="#752BFE"/>
<stop offset="1" stop-color="#EE4EFC"/>
</linearGradient>
</defs>
</svg>
